<svg xmlns="http://www.w3.org/2000/svg" width="1185" height="885" viewBox="0 0 1185 885">
<g>
<path d="M 318.97 703.99 C310.61,706.37 295.14,707.38 287.73,706.03 C281.40,704.88 270.63,701.36 265.57,698.79 C246.73,689.23 229.98,669.06 224.94,649.87 C223.90,645.90 223.25,645.23 217.88,642.58 C214.06,640.70 209.92,639.52 206.23,639.28 C198.24,638.74 196.20,638.21 195.82,636.58 C195.26,634.10 178.66,622.53 166.35,616.02 C159.83,612.58 152.70,608.57 150.50,607.12 C145.86,604.06 142.10,597.27 142.04,591.83 C142.02,589.82 141.44,587.98 140.76,587.75 C139.85,587.45 139.51,583.72 139.51,573.92 L 139.50 560.50 L 142.50 560.18 C144.28,559.99 147.13,558.33 149.50,556.10 C151.70,554.04 154.75,551.58 156.27,550.64 C158.89,549.02 159.07,549.02 159.61,550.72 C162.71,560.32 162.80,560.36 184.50,559.82 C203.98,559.34 202.76,559.78 205.65,552.00 C207.97,545.74 214.85,529.00 216.30,526.09 C218.20,522.27 225.96,514.07 229.32,512.33 C241.64,505.96 278.39,502.02 325.50,502.02 C358.78,502.01 367.02,504.04 377.12,514.74 C382.04,519.94 388.16,530.10 393.05,541.17 C395.32,546.30 398.10,552.53 399.24,555.00 C405.76,569.19 408.77,577.17 408.30,578.97 C407.61,581.60 410.40,585.81 413.30,586.54 C414.55,586.85 416.91,586.60 418.54,585.98 C420.17,585.35 426.45,584.44 432.50,583.95 C439.90,583.36 446.78,582.05 453.50,579.97 C464.80,576.46 469.24,576.18 545.00,574.06 C566.17,573.47 589.35,572.76 596.50,572.49 C603.65,572.23 619.17,571.78 631.00,571.49 C642.83,571.20 655.65,570.75 659.50,570.48 C663.35,570.22 675.05,569.94 685.50,569.86 L 704.50 569.71 L 711.00 573.06 C716.99,576.15 718.36,576.44 728.59,576.81 L 739.68 577.21 L 743.53 567.04 C745.65,561.46 747.75,556.66 748.19,556.38 C748.64,556.11 749.00,555.15 749.00,554.26 C749.00,553.36 752.69,545.18 757.20,536.07 C764.78,520.74 766.00,518.89 773.47,511.35 C781.45,503.30 781.66,503.16 791.52,500.13 C797.01,498.44 805.78,496.51 811.00,495.85 C824.47,494.13 901.64,494.06 908.82,495.75 C916.23,497.50 924.56,501.62 928.36,505.42 C932.49,509.56 941.61,525.51 944.97,534.50 L 947.59 541.50 L 975.55 541.19 C998.16,540.94 1003.99,540.92 1005.48,538.37 C1006.00,537.48 1006.00,536.29 1006.00,534.68 L 1006.00 534.42 C1006.00,531.05 1004.69,530.00 1000.47,530.00 C999.17,530.00 996.96,528.99 995.54,527.75 C993.10,525.61 992.93,524.77 992.05,511.00 C991.54,503.02 990.83,485.48 990.47,472.00 L 990.44 470.99 C989.93,452.13 989.78,446.59 992.36,444.60 C993.48,443.73 995.11,443.53 997.44,443.20 C1000.13,442.81 1002.49,442.02 1002.69,441.43 C1002.89,440.84 1002.00,438.82 1000.72,436.93 L 998.39 433.50 L 974.45 433.78 C961.28,433.93 920.35,435.04 883.50,436.24 C846.65,437.45 811.78,438.37 806.00,438.30 C800.22,438.22 792.83,438.11 789.57,438.06 C786.31,438.01 783.38,438.36 783.07,438.84 C782.76,439.33 772.60,440.04 760.50,440.42 C748.40,440.81 722.30,441.76 702.50,442.55 C682.70,443.33 647.38,444.65 624.00,445.48 C583.69,446.92 567.11,447.58 510.05,450.07 C493.26,450.81 484.53,451.59 482.18,452.57 C480.30,453.36 476.88,454.00 474.58,454.00 C469.15,454.00 468.00,455.31 468.00,461.51 C468.00,469.54 466.82,470.44 455.83,470.84 C447.48,471.14 446.20,470.95 443.75,469.02 C439.53,465.70 440.01,461.92 445.06,458.58 C447.30,457.10 448.95,455.35 448.74,454.69 C448.50,453.98 445.76,453.38 441.92,453.20 C438.39,453.03 435.14,452.54 434.71,452.10 C434.27,451.67 437.08,447.31 440.96,442.41 C445.45,436.73 448.00,432.61 448.00,431.00 C448.00,426.62 449.87,421.75 452.67,418.83 C454.16,417.27 455.75,416.00 456.22,416.00 C456.68,416.00 458.74,415.26 460.78,414.35 C462.83,413.44 465.06,412.78 465.74,412.89 C466.96,413.08 476.00,400.10 476.00,398.16 C476.00,396.80 502.87,368.06 507.66,364.29 C516.58,357.27 522.93,355.31 541.23,353.94 C567.45,351.97 656.47,349.14 657.16,350.25 C657.91,351.47 680.07,350.45 680.96,349.15 C681.65,348.14 846.75,345.73 913.00,345.77 C979.45,345.81 982.83,345.80 983.34,347.01 C983.38,347.08 983.40,347.16 983.42,347.25 C984.35,350.46 991.16,388.03 993.12,400.75 C994.33,408.59 995.59,415.00 995.94,415.00 C996.28,415.00 997.05,413.70 997.65,412.11 C999.53,407.15 1002.97,405.76 1015.83,404.75 C1037.44,403.07 1044.07,405.06 1049.30,414.76 C1058.53,431.89 1063.20,483.80 1058.62,518.51 C1055.19,544.59 1051.34,549.27 1031.69,551.23 L 1020.28 552.38 L 1019.62 562.41 C1018.99,571.95 1018.80,572.61 1015.73,575.85 C1013.62,578.08 1012.93,579.41 1013.75,579.71 C1015.67,580.41 1015.38,590.48 1013.38,592.48 C1009.57,596.29 989.51,604.91 977.25,608.00 C974.38,608.73 972.98,609.63 972.93,610.79 C972.89,611.73 972.06,613.85 971.08,615.50 C969.59,618.02 968.68,618.50 965.40,618.50 C962.97,618.50 959.99,619.44 957.50,621.00 C953.91,623.24 952.26,623.53 941.39,623.83 L 929.28 624.16 L 928.68 632.06 C926.87,655.49 916.08,674.91 897.09,688.90 C888.38,695.33 881.45,698.71 872.15,701.09 C844.42,708.20 816.70,700.24 797.14,679.55 C794.26,676.51 789.50,672.84 786.56,671.40 C776.08,666.27 764.20,654.43 759.80,644.75 L 757.64 640.00 L 742.88 640.00 C734.12,640.00 727.87,640.41 727.50,641.00 C727.16,641.55 724.97,642.00 722.63,642.00 C719.23,642.00 716.99,641.07 711.55,637.43 L 704.74 632.86 L 670.89 633.58 C639.80,634.24 637.00,634.16 636.41,632.63 C635.83,631.12 633.94,631.01 617.13,631.52 C597.93,632.11 428.48,635.00 413.32,635.00 C405.15,635.00 404.69,634.88 402.00,632.00 C400.35,630.24 398.18,629.00 396.73,629.00 C394.62,629.00 393.95,629.89 392.01,635.25 C386.71,649.89 379.65,660.11 369.77,667.47 C366.32,670.04 361.23,674.91 358.47,678.30 C348.82,690.12 334.10,699.70 318.97,703.99 ZM 647.48 432.25 L 646.95 440.00 L 649.73 439.97 C651.25,439.96 670.05,439.30 691.50,438.50 C712.95,437.71 745.68,436.51 764.24,435.85 C782.79,435.18 798.48,434.32 799.11,433.93 C800.18,433.27 799.50,405.44 797.38,363.25 L 796.76 351.00 L 778.13 350.99 C753.53,350.98 662.92,352.91 656.34,353.59 L 651.18 354.12 L 650.61 359.81 C650.30,362.94 649.58,378.77 649.02,395.00 C648.46,411.23 647.76,427.99 647.48,432.25 ZM 487.00 431.61 L 487.00 446.00 L 494.75 445.99 C499.01,445.99 517.80,445.34 536.50,444.54 C555.20,443.75 579.58,442.79 590.67,442.41 C601.77,442.03 611.26,441.44 611.77,441.11 C612.50,440.63 618.15,394.60 621.76,359.75 L 622.25 355.00 L 614.38 355.00 C601.21,355.01 545.40,357.91 535.65,359.09 C516.49,361.42 509.66,366.17 485.71,393.82 C477.89,402.84 471.14,410.84 470.70,411.61 C470.05,412.74 471.11,412.95 476.54,412.75 C482.46,412.53 483.37,412.75 485.08,414.86 C486.77,416.94 487.00,418.92 487.00,431.61 ZM 290.50 676.83 C297.47,678.15 300.74,678.17 307.53,676.91 C318.90,674.81 330.57,667.26 337.52,657.52 C345.90,645.78 348.11,634.58 344.84,620.50 C343.69,615.55 341.66,609.35 340.34,606.71 C331.89,589.93 310.33,579.41 291.54,582.90 C264.39,587.95 246.56,615.70 253.46,642.18 C257.83,658.96 273.49,673.61 290.50,676.83 ZM 842.78 673.45 C850.20,675.24 853.10,675.26 861.12,673.56 C878.44,669.89 891.46,658.42 897.02,641.95 C898.85,636.52 899.13,633.84 898.80,625.00 C898.43,615.45 898.07,613.80 894.77,606.77 C888.57,593.55 877.64,584.26 864.50,581.04 C858.27,579.52 845.50,579.52 839.82,581.05 C821.15,586.07 807.28,603.34 805.37,623.94 C804.64,631.76 806.56,640.49 811.04,649.67 C816.32,660.50 829.21,670.16 842.78,673.45 ZM 843.61 418.91 C846.64,421.29 847.26,421.31 893.01,420.15 C918.21,419.52 919.66,419.38 922.62,417.27 C928.16,413.33 928.47,411.17 926.56,390.72 C925.30,377.28 925.05,370.03 921.32,366.09 C916.93,361.46 907.74,361.40 886.47,361.25 C884.51,361.23 882.46,361.22 880.29,361.20 C877.49,361.18 874.86,361.15 872.39,361.12 C851.98,360.88 843.10,360.78 839.41,365.11 C836.57,368.44 836.81,374.40 837.24,384.95 C837.30,386.60 837.37,388.36 837.44,390.25 C838.21,412.83 838.69,415.03 843.61,418.91 ZM 536.00 340.56 C527.47,341.39 519.49,342.28 518.25,342.55 C517.01,342.82 516.00,342.64 516.00,342.15 C516.00,339.94 544.60,329.53 559.01,326.50 C565.80,325.07 588.94,322.84 590.03,323.52 C590.33,323.71 605.87,323.24 624.54,322.48 C694.17,319.65 751.16,318.65 847.00,318.57 C852.78,318.57 858.25,318.56 863.41,318.56 C942.16,318.48 951.01,318.47 955.37,322.90 C956.21,323.75 956.88,324.76 957.85,325.97 C959.58,328.12 961.00,330.19 961.00,330.58 C961.00,331.63 904.55,329.95 904.16,328.88 C903.97,328.37 902.53,327.29 900.96,326.48 C897.06,324.46 831.79,324.24 832.52,326.25 C833.61,329.23 831.35,329.80 817.10,330.14 C803.09,330.48 802.67,330.43 801.72,328.30 C801.19,327.10 800.24,325.93 799.62,325.69 C797.85,325.03 697.07,326.97 691.50,327.78 C687.67,328.33 686.27,329.03 685.51,330.75 C684.59,332.85 683.85,333.01 674.26,333.20 C672.47,333.23 670.86,333.27 669.41,333.30 C659.50,333.51 657.10,333.56 656.67,332.66 C656.53,332.38 656.60,332.00 656.68,331.49 C656.72,331.26 656.76,331.00 656.79,330.72 C657.05,328.29 656.79,328.00 654.79,328.41 C653.53,328.67 643.25,329.16 631.95,329.50 C593.19,330.66 585.77,331.36 580.68,334.34 C576.88,336.57 574.23,337.15 563.84,338.02 C557.05,338.59 544.53,339.73 536.00,340.56 ZM 450.94 421.05 C449.17,423.55 448.18,426.59 448.03,430.07 L 448.03 430.07 C448.01,430.39 448.00,430.69 448.00,431.00 C448.00,431.50 447.75,432.25 447.27,433.22 C446.56,434.65 445.34,436.55 443.68,438.84 L 443.67 438.85 C442.87,439.95 441.96,441.14 440.96,442.41 C440.70,442.74 440.45,443.06 440.20,443.37 L 440.20 443.38 L 433.78 451.50 L 429.34 451.92 C433.47,451.45 434.29,450.88 435.17,449.74 C436.09,448.54 436.68,447.29 436.48,446.97 C436.28,446.64 438.11,443.26 440.56,439.46 C445.24,432.19 445.46,431.68 446.44,425.84 C447.15,421.65 452.27,416.02 455.44,415.95 C456.05,415.94 456.65,415.88 457.24,415.75 C456.75,415.91 456.38,416.00 456.22,416.00 C455.75,416.00 454.16,417.27 452.67,418.83 C452.04,419.48 451.46,420.23 450.94,421.05 ZM 1001.26 540.32 C998.14,540.82 992.96,540.97 984.36,541.08 C990.69,540.73 994.71,540.32 994.83,539.97 C995.02,539.44 996.39,539.00 997.88,539.00 C1001.15,539.00 1003.00,537.36 1003.00,534.46 C1003.00,532.83 1002.05,532.03 999.04,531.13 C995.07,529.94 993.79,528.79 993.29,526.00 C993.12,525.07 992.92,522.94 992.70,519.97 C993.21,525.36 993.80,526.22 995.54,527.75 C996.96,528.99 999.17,530.00 1000.47,530.00 C1004.69,530.00 1006.00,531.05 1006.00,534.42 L 1006.00 534.68 C1006.00,536.25 1005.99,537.41 1005.49,538.29 C1004.92,539.27 1003.74,539.90 1001.26,540.32 ZM 990.98 487.75 C990.76,482.52 990.57,477.27 990.43,472.38 C989.79,450.01 989.87,448.03 991.58,445.14 C992.65,443.33 994.80,441.56 996.71,440.93 C1000.56,439.66 1000.74,438.98 997.90,436.40 C996.13,434.80 994.23,434.50 985.90,434.50 C980.46,434.50 976.00,434.27 976.00,434.00 C976.00,433.91 975.37,433.84 974.27,433.79 L 998.39 433.50 L 1000.72 436.93 C1002.00,438.82 1002.89,440.84 1002.69,441.43 C1002.49,442.02 1000.13,442.81 997.44,443.20 C995.11,443.53 993.48,443.73 992.36,444.60 C989.78,446.59 989.93,452.13 990.44,470.99 L 990.47 472.00 C990.60,476.93 990.78,482.40 990.98,487.75 ZM 656.87 329.62 C656.87,329.93 656.84,330.29 656.79,330.72 C656.76,331.00 656.72,331.26 656.68,331.49 C656.60,332.00 656.53,332.38 656.67,332.66 C657.10,333.56 659.50,333.51 669.41,333.30 C670.07,333.29 670.75,333.27 671.48,333.26 C669.94,333.43 668.93,333.67 668.83,333.93 C668.36,335.27 638.16,336.33 634.50,335.15 C632.18,334.39 634.16,334.15 643.27,334.09 C654.83,334.00 655.06,333.95 656.18,331.50 C656.50,330.80 656.74,330.13 656.87,329.62 ZM 803.00 469.09 C803.13,469.07 803.26,469.04 803.39,469.02 C802.62,469.22 801.67,469.43 800.50,469.67 C797.20,470.36 786.17,471.18 776.00,471.49 C759.76,472.00 757.23,471.87 755.25,470.41 C754.95,470.19 754.67,469.94 754.43,469.67 C754.53,469.75 754.64,469.82 754.75,469.88 L 754.75 469.88 C756.63,470.93 796.84,470.28 803.00,469.09 ZM 174.83 535.01 C176.28,533.06 177.27,531.39 177.94,529.51 C174.53,539.89 173.73,540.28 165.89,539.49 C159.24,538.82 159.22,538.83 158.19,541.66 L 157.16 544.50 L 157.11 541.50 C157.09,539.85 157.71,537.38 158.50,536.00 C158.93,535.24 159.26,534.54 159.49,533.88 C159.28,535.34 159.50,535.99 160.51,536.56 C161.48,537.31 163.19,537.70 165.85,537.86 C166.73,537.95 167.62,538.00 168.43,538.00 C170.14,538.00 171.23,537.92 172.12,537.54 C172.56,537.36 172.94,537.11 173.33,536.75 C173.81,536.32 174.28,535.76 174.83,535.01 ZM 192.50 468.87 C189.20,469.45 185.38,470.24 184.00,470.61 C182.62,470.99 181.73,471.04 182.00,470.73 C182.67,469.97 210.31,461.99 212.09,462.04 C215.88,462.14 200.85,467.38 192.50,468.87 ZM 623.50 445.50 C632.41,445.19 643.17,444.79 654.20,444.38 L 654.20 444.38 C671.90,443.73 690.20,443.03 702.50,442.55 C705.25,442.44 708.13,442.32 711.07,442.21 C731.46,441.44 758.86,440.51 776.00,440.01 C756.47,440.57 723.62,441.71 703.00,442.54 C682.38,443.36 657.35,444.32 647.39,444.67 L 629.29 445.30 L 628.19 451.40 C628.04,452.25 627.90,453.07 627.77,453.89 C628.02,452.21 628.29,450.61 628.60,449.00 C629.06,446.56 628.95,445.80 628.21,446.50 C625.89,448.69 624.76,464.39 624.00,505.00 C624.05,487.93 624.54,470.11 625.13,464.42 C625.75,458.42 626.31,451.92 626.38,450.00 L 626.50 446.50 L 603.50 446.73 C594.77,446.81 582.20,447.11 571.09,447.47 C580.02,447.11 588.23,446.79 596.99,446.46 C605.03,446.16 613.54,445.86 623.50,445.50 ZM 403.00 441.19 C403.00,442.54 407.55,442.08 411.95,440.78 C414.12,440.33 416.37,439.40 418.27,438.06 C418.33,438.02 418.40,437.97 418.46,437.93 C419.36,437.29 420.15,436.71 420.88,436.16 C419.98,436.90 419.06,437.61 418.05,438.36 C412.68,442.35 412.20,442.50 403.22,442.99 L 393.93 443.50 L 389.98 448.50 C386.42,453.00 386.15,453.48 387.91,453.79 C386.46,453.66 386.23,453.36 386.60,452.87 C387.17,452.12 389.36,449.25 391.46,446.50 L 395.17 441.65 L 401.93 441.25 L 420.36 422.71 C410.14,433.15 403.00,440.66 403.00,441.19 ZM 402.01 561.12 L 402.01 561.12 C401.26,559.40 400.56,557.83 400.00,556.63 C399.15,554.80 397.84,551.91 396.46,548.84 L 396.46 548.83 C396.22,548.30 395.97,547.75 395.72,547.19 C397.41,550.94 399.12,554.70 400.19,557.00 C401.85,560.58 404.07,565.66 405.11,568.30 C407.80,575.10 411.08,581.37 412.38,582.23 C413.00,582.64 415.91,582.98 418.86,582.98 C422.14,582.99 423.40,582.90 423.66,582.31 L 424.19 584.71 C421.49,584.87 418.82,584.96 416.23,584.98 C415.96,584.98 415.71,584.98 415.48,584.99 L 415.48 584.99 C415.07,584.99 414.71,585.00 414.38,584.99 C413.85,584.94 413.39,584.84 412.98,584.65 C412.21,584.30 411.60,583.63 410.90,582.36 C409.89,580.46 408.62,577.21 406.39,571.64 C405.35,568.87 403.89,565.37 402.01,561.12 ZM 717.00 333.06 C706.94,333.94 699.53,333.92 692.00,333.00 C688.75,332.60 694.47,332.32 706.00,332.32 C721.46,332.31 723.74,332.46 717.00,333.06 ZM 440.94 463.74 C440.78,462.31 441.11,461.05 442.02,460.49 C442.58,460.14 442.81,459.50 442.54,459.06 C442.27,458.63 442.95,457.45 444.05,456.46 C445.91,454.77 445.62,453.73 443.09,453.28 C445.97,453.50 448.47,454.00 448.73,454.68 C448.73,454.68 448.73,454.68 448.73,454.69 L 448.73 454.69 L 448.74 454.69 C448.95,455.35 447.30,457.10 445.06,458.58 C442.57,460.23 441.19,461.99 440.94,463.74 ZM 395.14 441.65 L 390.85 446.00 C388.94,447.94 386.89,450.18 385.71,451.59 C386.74,450.31 388.32,448.45 389.69,446.93 C392.20,444.15 392.53,443.35 391.21,443.35 C390.27,443.36 386.80,443.21 383.50,443.03 C378.97,442.78 380.49,442.52 389.71,441.97 ZM 633.01 322.14 C634.22,322.09 635.38,322.05 636.50,322.00 C670.06,320.60 705.80,319.67 748.95,319.14 C707.44,319.68 671.92,320.62 633.01,322.14 ZM 431.16 426.06 C431.72,425.42 432.31,424.73 432.95,423.99 C436.38,420.01 442.58,413.16 446.99,408.48 C443.78,412.02 440.91,415.21 438.62,417.78 C435.63,421.14 433.20,423.83 431.16,426.06 ZM 436.93 453.27 C434.48,453.84 432.34,455.37 430.51,457.85 C431.73,455.94 433.02,454.54 434.27,453.86 C434.80,453.58 435.76,453.38 436.93,453.27 ZM 423.40 580.74 C422.53,574.40 421.42,516.55 421.79,494.51 C421.43,515.76 422.51,571.73 423.40,580.74 ZM 590.58 331.58 C595.76,330.92 603.55,330.47 616.14,330.01 C610.20,330.29 604.56,330.57 600.00,330.84 C596.20,331.06 593.10,331.30 590.58,331.58 ZM 592.88 323.54 C593.41,323.53 593.95,323.51 594.50,323.49 C602.89,323.26 616.73,322.78 628.40,322.32 C627.12,322.38 625.83,322.43 624.54,322.48 C610.50,323.05 598.23,323.46 592.88,323.54 ZM 651.52 328.69 C653.26,328.58 654.42,328.49 654.79,328.41 C655.94,328.18 656.51,328.17 656.74,328.67 C656.18,328.62 654.31,328.63 651.52,328.69 ZM 181.68 510.50 C181.81,508.38 181.86,506.44 181.83,504.67 C181.82,501.75 181.63,499.28 181.22,497.81 C182.08,500.89 182.14,506.25 181.57,512.04 C181.61,511.53 181.65,511.02 181.68,510.50 ZM 739.68 577.21 L 731.98 576.93 L 739.76 577.00 ZM 838.61 437.60 C840.23,437.56 841.89,437.51 843.58,437.46 C831.49,437.91 823.54,438.25 823.31,438.36 C823.54,438.23 829.35,437.95 838.61,437.60 ZM 976.73 346.03 C975.23,345.99 973.37,345.95 971.09,345.92 C964.84,345.84 955.38,345.80 941.01,345.78 C960.64,345.78 971.11,345.84 976.73,346.03 ZM 391.83 453.88 C396.16,453.80 403.79,453.49 411.98,453.06 C418.18,452.73 422.62,452.48 425.83,452.24 C421.32,452.59 411.67,453.13 403.02,453.50 C397.99,453.72 394.37,453.85 391.83,453.88 ZM 562.58 325.88 C565.78,325.35 569.20,324.92 573.09,324.58 C569.28,324.98 565.50,325.44 562.58,325.88 ZM 621.75 554.21 C621.96,552.43 622.21,550.71 622.46,549.22 C622.35,550.63 622.25,551.58 622.15,552.00 C622.01,552.59 621.88,553.34 621.75,554.21 ZM 716.22 575.42 C714.66,574.90 713.12,574.15 711.00,573.06 L 708.28 571.65 C708.77,571.89 709.30,572.17 709.89,572.47 C712.02,573.57 714.48,574.70 716.22,575.42 ZM 621.00 571.75 L 621.00 564.75 C621.00,563.63 621.05,562.27 621.15,560.79 C621.09,561.98 621.05,563.15 621.04,564.25 L 621.00 571.75 ZM 483.37 389.36 C477.61,395.69 472.30,401.72 469.27,405.50 C467.78,407.36 466.46,408.91 465.25,410.18 C466.46,408.89 467.78,407.34 469.26,405.50 C472.36,401.63 477.83,395.43 483.72,388.98 C483.60,389.11 483.48,389.24 483.37,389.36 ZM 156.71 524.90 C157.03,525.88 157.48,526.61 158.11,527.42 C158.70,528.16 159.12,528.84 159.39,529.52 C159.08,528.80 158.62,528.06 158.00,527.27 C157.42,526.54 157.01,525.84 156.71,524.90 ZM 519.66 449.65 C516.20,449.81 512.94,449.95 510.05,450.08 C501.55,450.45 495.11,450.83 490.53,451.24 C495.11,450.83 501.55,450.45 510.05,450.07 C513.39,449.93 516.59,449.79 519.66,449.65 ZM 623.91 545.02 C623.69,551.99 623.51,557.26 623.39,559.58 C623.24,562.43 623.18,564.60 623.21,566.23 C623.18,564.60 623.24,562.43 623.39,559.58 C623.50,557.29 623.69,552.02 623.91,545.02 ZM 424.39 475.40 C424.42,475.19 424.46,474.98 424.50,474.78 C424.46,475.00 424.42,475.22 424.38,475.45 C422.99,483.70 422.83,489.68 423.47,525.77 C422.83,489.61 422.99,483.71 424.39,475.40 ZM 178.18 528.77 C178.24,528.59 178.29,528.41 178.34,528.23 C178.39,528.10 178.43,527.97 178.48,527.83 L 178.51 527.77 C178.35,528.26 178.27,528.52 178.18,528.77 ZM 955.37 322.90 C954.72,322.24 953.97,321.68 952.91,321.20 C953.98,321.68 954.73,322.24 955.38,322.90 C955.86,323.39 956.29,323.94 956.76,324.55 C956.29,323.94 955.86,323.39 955.37,322.90 ZM 806.43 467.30 C806.62,466.90 806.74,466.42 806.81,465.81 C806.74,466.42 806.63,466.90 806.43,467.30 ZM 754.06 463.42 C754.11,463.34 754.26,463.20 754.42,463.07 C754.29,463.18 754.17,463.29 754.06,463.42 ZM 947.24 540.38 C947.14,540.20 947.04,539.98 946.93,539.72 L 946.92 539.70 C947.03,539.96 947.14,540.19 947.24,540.38 Z" fill="rgb(253,253,253)"/>
</g>
</svg>